<?xml version="1.0" encoding="utf-8"?>
<!-- Generator: Adobe Illustrator 19.1.0, SVG Export Plug-In . SVG Version: 6.00 Build 0)  -->
<svg version="1.1" id="Layer_1" xmlns="http://www.w3.org/2000/svg" xmlns:xlink="http://www.w3.org/1999/xlink" x="0px" y="0px"
	 width="425.2px" height="425.2px" viewBox="-84 208.7 425.2 425.2" style="enable-background:new -84 208.7 425.2 425.2;"
	 xml:space="preserve">
<circle style="&st0;" cx="128.6" cy="421.3" r="113.4"/>
<text id="job" transform="matrix(1 0 0 1 128.5998 461.6622)" style="&st1; &st2; &st3;">Team</text>
<g style="&st4;">
	<path style="&st1;" d="M110.3,380.7c-5.4,0.2-9.8,2.3-13.2,6.4h-6.7c-2.7,0-5-0.7-6.9-2c-1.9-1.3-2.8-3.3-2.8-5.9
		c0-11.7,2.1-17.6,6.2-17.6c0.2,0,0.9,0.3,2.2,1c1.2,0.7,2.9,1.4,4.9,2.1c2,0.7,4,1.1,5.9,1.1c2.2,0,4.4-0.4,6.6-1.1
		c-0.2,1.2-0.2,2.3-0.2,3.3C106.3,372.6,107.6,376.8,110.3,380.7z M108.9,339.8c2.5,2.5,3.7,5.5,3.7,9c0,3.5-1.2,6.5-3.7,9
		c-2.5,2.5-5.5,3.7-9,3.7c-3.5,0-6.5-1.2-9-3.7c-2.5-2.5-3.7-5.5-3.7-9c0-3.5,1.2-6.5,3.7-9c2.5-2.5,5.5-3.7,9-3.7
		C103.4,336.1,106.4,337.3,108.9,339.8z M163.7,412.5c0,4-1.2,7.1-3.6,9.4c-2.4,2.3-5.6,3.5-9.7,3.5h-43.5c-4,0-7.2-1.2-9.7-3.5
		c-2.4-2.3-3.6-5.5-3.6-9.4c0-1.8,0.1-3.5,0.2-5.2c0.1-1.7,0.3-3.5,0.7-5.4c0.3-1.9,0.8-3.7,1.3-5.4c0.5-1.7,1.2-3.3,2.1-4.9
		s1.9-2.9,3.1-4c1.2-1.1,2.6-2,4.3-2.7c1.7-0.7,3.5-1,5.6-1c0.3,0,1,0.4,2.1,1.1s2.3,1.5,3.6,2.4c1.3,0.9,3.1,1.7,5.3,2.4
		c2.2,0.7,4.5,1.1,6.7,1.1c2.3,0,4.5-0.4,6.7-1.1c2.2-0.7,4-1.5,5.3-2.4c1.3-0.9,2.5-1.7,3.6-2.4s1.8-1.1,2.1-1.1c2,0,3.9,0.3,5.6,1
		c1.7,0.7,3.1,1.6,4.3,2.7c1.2,1.1,2.2,2.5,3.1,4s1.6,3.2,2.1,4.9c0.5,1.7,1,3.5,1.3,5.4c0.3,1.9,0.6,3.8,0.7,5.4
		C163.6,409,163.7,410.7,163.7,412.5z M142.1,354.5c3.7,3.7,5.6,8.2,5.6,13.5s-1.9,9.8-5.6,13.5c-3.7,3.7-8.2,5.6-13.5,5.6
		c-5.3,0-9.8-1.9-13.5-5.6c-3.7-3.7-5.6-8.2-5.6-13.5s1.9-9.8,5.6-13.5c3.7-3.7,8.2-5.6,13.5-5.6
		C133.9,348.8,138.4,350.7,142.1,354.5z M166.3,339.8c2.5,2.5,3.7,5.5,3.7,9c0,3.5-1.2,6.5-3.7,9c-2.5,2.5-5.5,3.7-9,3.7
		s-6.5-1.2-9-3.7c-2.5-2.5-3.7-5.5-3.7-9c0-3.5,1.2-6.5,3.7-9c2.5-2.5,5.5-3.7,9-3.7S163.8,337.3,166.3,339.8z M176.4,379.2
		c0,2.6-0.9,4.6-2.8,5.9c-1.9,1.3-4.2,2-6.9,2h-6.7c-3.4-4.1-7.8-6.2-13.2-6.4c2.7-3.9,4-8.1,4-12.8c0-1-0.1-2.1-0.2-3.3
		c2.2,0.8,4.4,1.1,6.6,1.1c2,0,3.9-0.4,5.9-1.1c2-0.7,3.6-1.4,4.9-2.1c1.2-0.7,2-1,2.2-1C174.4,361.6,176.4,367.5,176.4,379.2z"/>
</g>
</svg>
