<?xml version="1.0" encoding="utf-8"?>
<!-- Generator: Adobe Illustrator 19.1.0, SVG Export Plug-In . SVG Version: 6.00 Build 0)  -->
<svg version="1.1" id="Layer_1" xmlns="http://www.w3.org/2000/svg" xmlns:xlink="http://www.w3.org/1999/xlink" x="0px" y="0px"
	 width="425.2px" height="425.2px" viewBox="-84 208.7 425.2 425.2" style="enable-background:new -84 208.7 425.2 425.2;"
	 xml:space="preserve">
<style type="text/css">
	.st0{fill:#F47F20;}
	.st1{fill:#FFFFFF;}
	.st2{font-family:'Roboto-Black';}
	.st3{font-size:24px;}
	.st4{enable-background:new    ;}
</style>
<circle class="st0" cx="128.6" cy="421.3" r="113.4"/>
<text id="job" transform="matrix(1 0 0 1 128.5998 461.6622)" class="st1 st2 st3">Teaching</text>
<g class="st4">
	<path class="st1" d="M128.6,336.1l47.8,19.1v6.4H170c0,0.9-0.3,1.6-1,2.2s-1.5,0.9-2.4,0.9h-76c-0.9,0-1.7-0.3-2.4-0.9
		c-0.7-0.6-1-1.4-1-2.2h-6.4v-6.4L128.6,336.1z M173,415.8c0.9,0,1.7,0.3,2.4,0.9c0.7,0.6,1,1.4,1,2.2v6.4H80.8V419
		c0-0.9,0.3-1.6,1-2.2c0.7-0.6,1.5-0.9,2.4-0.9H173z M93.5,368h12.8v38.3h6.4V368h12.8v38.3h6.4V368h12.8v38.3h6.4V368h12.8v38.3
		h2.9c0.9,0,1.7,0.3,2.4,0.9s1,1.4,1,2.2v3.2H87.2v-3.2c0-0.9,0.3-1.6,1-2.2c0.7-0.6,1.5-0.9,2.4-0.9h2.9V368z"/>
</g>
</svg>
