<?xml version="1.0" encoding="utf-8"?>
<!-- Generator: Adobe Illustrator 19.1.0, SVG Export Plug-In . SVG Version: 6.00 Build 0)  -->
<svg version="1.1" id="Layer_1" xmlns="http://www.w3.org/2000/svg" xmlns:xlink="http://www.w3.org/1999/xlink" x="0px" y="0px"
	 width="425.2px" height="425.2px" viewBox="-84 208.7 425.2 425.2" style="enable-background:new -84 208.7 425.2 425.2;"
	 xml:space="preserve">
<style type="text/css">
	.st0{fill:#F47F20;}
	.st1{fill:#FFFFFF;}
	.st2{font-family:'Roboto-Black';}
	.st3{font-size:24px;}
	.st4{enable-background:new    ;}
</style>
<circle class="st0" cx="128.6" cy="421.3" r="113.4"/>
<text id="job" transform="matrix(1 0 0 1 128.5998 461.6626)" class="st1 st2 st3">Digital tools</text>
<g class="st4">
	<path class="st1" d="M168.5,403h8v4.8c0,1.3-0.8,2.5-2.3,3.4s-3.4,1.4-5.6,1.4H88.7c-2.2,0-4.1-0.5-5.6-1.4
		c-1.6-0.9-2.3-2.1-2.3-3.4V403h8H168.5z M101.5,399.9c-2.2,0-4.1-0.8-5.6-2.3c-1.6-1.6-2.3-3.4-2.3-5.6v-35.1
		c0-2.2,0.8-4.1,2.3-5.6c1.6-1.6,3.4-2.3,5.6-2.3h54.2c2.2,0,4.1,0.8,5.6,2.3c1.6,1.6,2.3,3.4,2.3,5.6v35.1c0,2.2-0.8,4.1-2.3,5.6
		c-1.6,1.6-3.4,2.3-5.6,2.3H101.5z M99.9,356.8v35.1c0,0.4,0.2,0.8,0.5,1.1c0.3,0.3,0.7,0.5,1.1,0.5h54.2c0.4,0,0.8-0.2,1.1-0.5
		c0.3-0.3,0.5-0.7,0.5-1.1v-35.1c0-0.4-0.2-0.8-0.5-1.1c-0.3-0.3-0.7-0.5-1.1-0.5h-54.2c-0.4,0-0.8,0.2-1.1,0.5
		C100.1,356,99.9,356.4,99.9,356.8z M132.6,407.8c0.5,0,0.8-0.3,0.8-0.8s-0.3-0.8-0.8-0.8h-8c-0.5,0-0.8,0.3-0.8,0.8
		s0.3,0.8,0.8,0.8H132.6z"/>
</g>
</svg>
