<?xml version="1.0" encoding="utf-8"?>
<!-- Generator: Adobe Illustrator 19.1.0, SVG Export Plug-In . SVG Version: 6.00 Build 0)  -->
<svg version="1.1" id="Layer_1" xmlns="http://www.w3.org/2000/svg" xmlns:xlink="http://www.w3.org/1999/xlink" x="0px" y="0px"
	 width="425.2px" height="425.2px" viewBox="-84 208.7 425.2 425.2" style="enable-background:new -84 208.7 425.2 425.2;"
	 xml:space="preserve">
<style type="text/css">
	.st0{fill:#F47F20;}
	.st1{fill:#FFFFFF;}
	.st2{font-family:'Roboto-Black';}
	.st3{font-size:24px;}
	.st4{enable-background:new    ;}
</style>
<circle class="st0" cx="128.6" cy="421.3" r="113.4"/>
<text id="job" transform="matrix(1 0 0 1 128.5998 461.6626)" class="st1 st2 st3">Digital tools</text>
<g class="st4">
	<path class="st1" d="M135,363.2c0,1.3,0.5,2.5,1.4,3.4c0.9,0.9,2.1,1.4,3.4,1.4h27.1v52.6c0,1.3-0.5,2.5-1.4,3.4s-2.1,1.4-3.4,1.4
		H95.1c-1.3,0-2.5-0.5-3.4-1.4s-1.4-2.1-1.4-3.4v-79.7c0-1.3,0.5-2.5,1.4-3.4c0.9-0.9,2.1-1.4,3.4-1.4H135V363.2z M141.4,361.6
		v-23.5c0.7,0.5,1.3,0.9,1.8,1.4l20.3,20.3c0.5,0.5,0.9,1.1,1.4,1.8H141.4z"/>
</g>
</svg>
