<?xml version="1.0" encoding="utf-8"?>
<!-- Generator: Adobe Illustrator 19.1.0, SVG Export Plug-In . SVG Version: 6.00 Build 0)  -->
<svg version="1.1" id="Layer_1" xmlns="http://www.w3.org/2000/svg" xmlns:xlink="http://www.w3.org/1999/xlink" x="0px" y="0px"
	 width="425.2px" height="425.2px" viewBox="-84 208.7 425.2 425.2" style="enable-background:new -84 208.7 425.2 425.2;"
	 xml:space="preserve">
<style type="text/css">
	.st0{fill:#F47F20;}
	.st1{fill:#FFFFFF;}
	.st2{font-family:'Roboto-Black';}
	.st3{font-size:24px;}
	.st4{enable-background:new    ;}
</style>
<circle class="st0" cx="128.6" cy="421.3" r="113.4"/>
<text id="job" transform="matrix(1 0 0 1 128.5998 461.6626)" class="st1 st2 st3">Physical tools</text>
<g class="st4">
	<path class="st1" d="M137.9,388.5l-34,34c-1.2,1.2-2.7,1.8-4.5,1.8c-1.7,0-3.2-0.6-4.5-1.8l-5.3-5.4c-1.3-1.2-1.9-2.7-1.9-4.5
		c0-1.8,0.6-3.3,1.9-4.5l33.9-33.9c1.3,3.3,3.2,6.1,5.7,8.6C131.8,385.3,134.6,387.2,137.9,388.5z M104.9,411.7
		c0.6-0.6,0.9-1.4,0.9-2.2c0-0.9-0.3-1.6-0.9-2.2c-0.6-0.6-1.4-0.9-2.2-0.9c-0.9,0-1.6,0.3-2.2,0.9c-0.6,0.6-0.9,1.4-0.9,2.2
		c0,0.9,0.3,1.6,0.9,2.2c0.6,0.6,1.4,0.9,2.2,0.9C103.5,412.6,104.2,412.3,104.9,411.7z M169.5,366.8c0,1.3-0.4,3.1-1.1,5.3
		c-1.6,4.5-4.3,8.1-8.2,10.8c-3.9,2.8-8.2,4.2-12.9,4.2c-6.1,0-11.4-2.2-15.8-6.6c-4.4-4.4-6.6-9.6-6.6-15.8s2.2-11.4,6.6-15.8
		c4.4-4.4,9.6-6.6,15.8-6.6c1.9,0,3.9,0.3,6.1,0.8c2.1,0.5,3.9,1.3,5.4,2.3c0.5,0.4,0.8,0.8,0.8,1.4s-0.3,1-0.8,1.4l-14.6,8.4V368
		l9.6,5.3c0.2-0.1,1.5-0.9,3.9-2.4c2.5-1.5,4.7-2.9,6.8-4c2-1.2,3.2-1.8,3.5-1.8c0.5,0,0.9,0.2,1.2,0.5S169.5,366.3,169.5,366.8z"/>
</g>
</svg>
