<?xml version="1.0" encoding="utf-8"?>
<!-- Generator: Adobe Illustrator 16.0.4, SVG Export Plug-In . SVG Version: 6.00 Build 0)  -->
<!DOCTYPE svg PUBLIC "-//W3C//DTD SVG 1.1//EN" "http://www.w3.org/Graphics/SVG/1.1/DTD/svg11.dtd">
<svg version="1.1" id="Layer_1" xmlns="http://www.w3.org/2000/svg" xmlns:xlink="http://www.w3.org/1999/xlink" x="0px" y="0px"
	 width="425.199px" height="425.199px" viewBox="0 0 425.199 425.199" enable-background="new 0 0 425.199 425.199"
	 xml:space="preserve">
<circle fill="#F47F20" cx="212.599" cy="212.6" r="119.055"/>
<text id="job" transform="matrix(1 0 0 1 212.5999 252.9636)" fill="#FFFFFF" font-family="'Roboto-Black'" font-size="24">Teaching</text>
<g enable-background="new    ">
	<path fill="#FFFFFF" d="M212.599,127.4l47.799,19.1v6.4H254c0,0.897-0.301,1.6-1,2.2c-0.701,0.6-1.5,0.897-2.398,0.897h-76
		c-0.899,0-1.7-0.3-2.399-0.897c-0.7-0.603-1-1.4-1-2.2h-6.399v-6.4L212.599,127.4z M257,207.1c0.898,0,1.699,0.3,2.398,0.897
		c0.701,0.603,1,1.4,1,2.2v6.4H164.8v-6.302c0-0.897,0.302-1.6,1-2.197c0.7-0.603,1.5-0.9,2.4-0.9H257V207.1z M177.5,159.3h12.8
		V197.6h6.4V159.3h12.8V197.6h6.399V159.3H228.7V197.6h6.4V159.3h12.799V197.6h2.898c0.9,0,1.701,0.3,2.4,0.897
		c0.699,0.603,1,1.4,1,2.2v3.2h-83v-3.2c0-0.9,0.3-1.6,1-2.2c0.699-0.6,1.5-0.897,2.399-0.897h2.898V159.3H177.5z"/>
</g>
</svg>
