<?xml version="1.0" encoding="utf-8"?>
<!-- Generator: Adobe Illustrator 16.0.4, SVG Export Plug-In . SVG Version: 6.00 Build 0)  -->
<!DOCTYPE svg PUBLIC "-//W3C//DTD SVG 1.1//EN" "http://www.w3.org/Graphics/SVG/1.1/DTD/svg11.dtd">
<svg version="1.1" id="Ebene_1" xmlns="http://www.w3.org/2000/svg" xmlns:xlink="http://www.w3.org/1999/xlink" x="0px" y="0px"
	 width="425.199px" height="425.199px" viewBox="0 0 425.199 425.199" enable-background="new 0 0 425.199 425.199"
	 xml:space="preserve">
<path fill="#F47F20" d="M331.655,212.599c0,65.753-53.302,119.055-119.056,119.055c-65.752,0-119.055-53.301-119.055-119.055
	c0-65.752,53.302-119.055,119.055-119.055C278.353,93.543,331.655,146.846,331.655,212.599"/>
<text id="job" transform="matrix(1 0 0 1 212.5994 252.9729)" fill="#FFFFFF" font-family="'Roboto-Black'" font-size="24">Physical tools </text>
<path fill="#FFFFFF" d="M222.363,179.81l-33.972,33.972c-1.229,1.229-2.724,1.844-4.482,1.844c-1.728,0-3.238-0.615-4.533-1.844
	l-5.28-5.379c-1.262-1.195-1.893-2.689-1.893-4.482c0-1.76,0.631-3.271,1.893-4.533l33.923-33.922
	c1.295,3.255,3.196,6.135,5.703,8.643C216.229,176.614,219.109,178.514,222.363,179.81z M189.337,202.973
	c0.63-0.63,0.947-1.378,0.947-2.242c0-0.862-0.316-1.609-0.947-2.242c-0.631-0.63-1.378-0.945-2.242-0.945s-1.611,0.315-2.241,0.945
	c-0.631,0.632-0.946,1.379-0.946,2.242c0,0.864,0.314,1.611,0.946,2.242c0.63,0.631,1.377,0.946,2.241,0.946
	S188.707,203.604,189.337,202.973z M253.945,158.141c0,1.295-0.383,3.056-1.146,5.28c-1.562,4.451-4.291,8.062-8.193,10.834
	c-3.901,2.772-8.194,4.159-12.877,4.159c-6.145,0-11.399-2.184-15.766-6.551c-4.368-4.365-6.551-9.621-6.551-15.766
	c0-6.144,2.183-11.399,6.551-15.766c4.365-4.366,9.621-6.551,15.766-6.551c1.926,0,3.943,0.274,6.054,0.822
	c2.106,0.548,3.893,1.32,5.354,2.316c0.531,0.366,0.799,0.831,0.799,1.395c0,0.565-0.268,1.03-0.799,1.396l-14.594,8.418v11.158
	l9.612,5.33c0.166-0.101,1.478-0.904,3.937-2.416c2.457-1.512,4.707-2.856,6.75-4.035c2.041-1.179,3.213-1.769,3.512-1.769
	c0.498,0,0.888,0.167,1.17,0.498C253.803,157.228,253.945,157.643,253.945,158.141z"/>
</svg>
