<?xml version="1.0" encoding="utf-8"?>
<!-- Generator: Adobe Illustrator 16.0.4, SVG Export Plug-In . SVG Version: 6.00 Build 0)  -->
<!DOCTYPE svg PUBLIC "-//W3C//DTD SVG 1.1//EN" "http://www.w3.org/Graphics/SVG/1.1/DTD/svg11.dtd">
<svg version="1.1" id="Ebene_1" xmlns="http://www.w3.org/2000/svg" xmlns:xlink="http://www.w3.org/1999/xlink" x="0px" y="0px"
	 width="425.199px" height="425.199px" viewBox="0 0 425.199 425.199" enable-background="new 0 0 425.199 425.199"
	 xml:space="preserve">
<path fill="#F47F20" d="M331.655,212.599c0,65.753-53.303,119.055-119.056,119.055c-65.752,0-119.055-53.302-119.055-119.055
	c0-65.752,53.303-119.055,119.055-119.055C278.353,93.543,331.655,146.847,331.655,212.599"/>
<text id="job" transform="matrix(1 0 0 1 212.5994 252.9729)" fill="#FFFFFF" font-family="'Roboto-Black'" font-size="24">Team</text>
<path fill="#FFFFFF" d="M194.318,172.039c-5.38,0.167-9.779,2.292-13.199,6.376h-6.676c-2.723,0-5.015-0.672-6.874-2.018
	c-1.859-1.345-2.79-3.312-2.79-5.902c0-11.723,2.06-17.584,6.178-17.584c0.198,0,0.921,0.349,2.167,1.046
	c1.245,0.696,2.863,1.402,4.856,2.117c1.992,0.714,3.969,1.07,5.929,1.07c2.224,0,4.433-0.381,6.625-1.146
	c-0.167,1.229-0.249,2.325-0.249,3.288C190.284,163.903,191.628,168.153,194.318,172.039z M192.924,131.142
	c2.491,2.491,3.736,5.497,3.736,9.017c0,3.521-1.245,6.524-3.736,9.016s-5.497,3.736-9.016,3.736c-3.521,0-6.526-1.245-9.018-3.736
	c-2.49-2.491-3.736-5.496-3.736-9.016c0-3.521,1.246-6.525,3.736-9.017c2.491-2.491,5.496-3.736,9.018-3.736
	C187.427,127.406,190.433,128.651,192.924,131.142z M247.668,203.77c0,3.985-1.212,7.131-3.636,9.439
	c-2.426,2.308-5.646,3.462-9.664,3.462h-43.537c-4.02,0-7.24-1.154-9.664-3.462c-2.425-2.31-3.638-5.455-3.638-9.439
	c0-1.76,0.059-3.479,0.175-5.156c0.115-1.676,0.349-3.486,0.697-5.43c0.35-1.941,0.788-3.744,1.32-5.405
	c0.531-1.659,1.246-3.278,2.142-4.855c0.896-1.577,1.926-2.922,3.089-4.035c1.161-1.112,2.582-2,4.259-2.665
	c1.677-0.664,3.527-0.996,5.554-0.996c0.332,0,1.046,0.357,2.143,1.071c1.096,0.715,2.308,1.512,3.636,2.391
	c1.328,0.88,3.104,1.678,5.33,2.392c2.225,0.714,4.466,1.07,6.725,1.07c2.258,0,4.5-0.356,6.726-1.07
	c2.225-0.714,4.002-1.512,5.329-2.392c1.328-0.879,2.541-1.676,3.638-2.391c1.096-0.713,1.81-1.071,2.142-1.071
	c2.025,0,3.877,0.333,5.555,0.996c1.678,0.665,3.097,1.553,4.26,2.665c1.162,1.113,2.19,2.458,3.089,4.035
	c0.896,1.578,1.609,3.196,2.142,4.855c0.53,1.661,0.973,3.463,1.32,5.405c0.349,1.943,0.58,3.753,0.697,5.43
	C247.609,200.291,247.668,202.01,247.668,203.77z M226.124,145.762c3.735,3.736,5.604,8.244,5.604,13.524
	c0,5.279-1.868,9.787-5.604,13.523c-3.736,3.736-8.244,5.604-13.524,5.604s-9.788-1.868-13.523-5.604
	c-3.736-3.735-5.604-8.244-5.604-13.523c0-5.28,1.868-9.789,5.604-13.524c3.735-3.735,8.243-5.604,13.523-5.604
	S222.388,142.026,226.124,145.762z M250.309,131.142c2.49,2.491,3.735,5.497,3.735,9.017c0,3.521-1.245,6.524-3.735,9.016
	c-2.491,2.491-5.497,3.736-9.017,3.736c-3.521,0-6.525-1.245-9.017-3.736c-2.49-2.491-3.735-5.496-3.735-9.016
	c0-3.521,1.245-6.525,3.735-9.017s5.495-3.736,9.017-3.736C244.812,127.406,247.817,128.651,250.309,131.142z M260.42,170.494
	c0,2.59-0.93,4.558-2.789,5.902c-1.86,1.346-4.151,2.018-6.874,2.018h-6.675c-3.421-4.084-7.821-6.209-13.201-6.376
	c2.689-3.886,4.035-8.137,4.035-12.752c0-0.964-0.083-2.06-0.249-3.288c2.19,0.764,4.399,1.146,6.625,1.146
	c1.959,0,3.936-0.355,5.928-1.071c1.993-0.714,3.611-1.42,4.857-2.116c1.244-0.697,1.967-1.046,2.166-1.046
	C258.361,152.91,260.42,158.772,260.42,170.494z"/>
</svg>
