<?xml version="1.0" encoding="utf-8"?>
<!-- Generator: Adobe Illustrator 19.1.0, SVG Export Plug-In . SVG Version: 6.00 Build 0)  -->
<svg version="1.1" id="Layer_1" xmlns="http://www.w3.org/2000/svg" xmlns:xlink="http://www.w3.org/1999/xlink" x="0px" y="0px"
	 viewBox="0 0 595.3 841.9" style="enable-background:new 0 0 595.3 841.9;" xml:space="preserve">
<style type="text/css">
	.st0{fill:#2980BA;}
	.st1{fill:#FFFFFF;}
	.st2{font-family:'ArialMT';}
	.st3{font-size:20px;}
</style>
<image style="overflow:visible;" width="128" height="128" id="img" xlink:href="2BF07A6.jpg"  transform="matrix(0.8281 0 0 0.8281 245 308.7742)">
</image>
<path id="path" class="st0" d="M298,274.5c-78.3,0-141.7,63.5-141.7,141.7S219.7,558,298,558s141.7-63.5,141.7-141.7
	S376.3,274.5,298,274.5z M298,408.9c-27.6,0-49.9-22.4-49.9-49.9c0-27.6,22.4-49.9,49.9-49.9s49.9,22.4,49.9,49.9
	C347.9,386.5,325.6,408.9,298,408.9z"/>
<g id="text">
	<text id="vorname" transform="matrix(1 0 0 1 233.5418 450.1278)" class="st1 st2 st3">Vorname</text>
	<text id="name" transform="matrix(1 0 0 1 233.5419 474.3721)" class="st1 st2 st3">Nachname</text>
	<text id="mail" transform="matrix(1 0 0 1 233.5419 496.6799)" class="st1 st2 st3">typ@ethz.ch</text>
</g>
</svg>
