<?xml version="1.0" encoding="utf-8"?>
<!-- Generator: Adobe Illustrator 19.1.0, SVG Export Plug-In . SVG Version: 6.00 Build 0)  -->
<svg version="1.1" baseProfile="basic" id="Layer_1"
	 xmlns="http://www.w3.org/2000/svg" xmlns:xlink="http://www.w3.org/1999/xlink" x="0px" y="0px" width="425.2px" height="425.2px"
	 viewBox="0 0 425.2 425.2" xml:space="preserve">
<polyline style="fill:none;stroke:#000000;stroke-width:0.8634;stroke-miterlimit:10;" points="182.15,386.39 182.15,291.29 
	224.64,202.32 267.13,291.29 267.13,386.39 "/>
<line style="fill:none;stroke:#000000;stroke-width:0.8634;stroke-miterlimit:10;" x1="224.64" y1="146.92" x2="224.64" y2="152.89"/>
<circle style="fill:#FFFFFF;stroke:#000000;stroke-width:0.8634;stroke-miterlimit:10;" cx="224.64" cy="82.66" r="64.26"/>
<circle id="mitarbeiter" style="fill:#FFFFFF;stroke:#000000;stroke-width:0.8634;stroke-miterlimit:10;" cx="224.64" cy="202.32" r="49.43"/>
<circle id="student_1_" style="fill:#FFFFFF;stroke:#000000;stroke-width:0.8634;stroke-miterlimit:10;" cx="182.15" cy="291.29" r="39.54"/>
<circle id="student" style="fill:#FFFFFF;stroke:#000000;stroke-width:0.8634;stroke-miterlimit:10;" cx="267.13" cy="291.29" r="39.54"/>
<circle id="student_2_" style="fill:#FFFFFF;stroke:#000000;stroke-width:0.8634;stroke-miterlimit:10;" cx="182.15" cy="375.86" r="39.54"/>
<circle id="aemter" style="fill:#FFFFFF;stroke:#000000;stroke-width:0.8634;stroke-miterlimit:10;" cx="267.13" cy="375.86" r="39.54"/>
<text id="vorname" transform="matrix(1 0 0 1 161.6397 80.1396)"><tspan x="0" y="0" style="font-family:'PTMono-Bold'; font-size:10px;">Forschungsschwerpukte</tspan><tspan x="15" y="12" style="font-family:'PTMono-Bold'; font-size:10px;">Forschungsthemen</tspan></text>
<text id="name_1_" transform="matrix(1 0 0 1 196.1701 204.9698)" style="font-family:'PTMono-Bold'; font-size:10px;">Mitarbeiter</text>
<text transform="matrix(1 0 0 1 158.8575 293.9386)" style="font-family:'PTMono-Bold'; font-size:10px;">Studenten</text>
<text transform="matrix(1 0 0 1 243.8355 293.9377)" style="font-family:'PTMono-Bold'; font-size:10px;">Studenten</text>
<text transform="matrix(1 0 0 1 158.8569 378.5122)" style="font-family:'PTMono-Bold'; font-size:10px;">Studenten</text>
<text transform="matrix(1 0 0 1 254.1876 378.521)" style="font-family:'PTMono-Bold'; font-size:10px;">Ämter</text>
</svg>
